# xmcd
#
# Track frame offsets:
#	150
#	18525
#	27675
#	41778
#	54753
#	69303
#	80705
#	92255
#	106730
#
# Disc length: 1570 seconds
#
# Revision: 0
# Processed by: cddbd v1.5.1PL0 Copyright (c) Steve Scherf et al.
# Submitted via: EasyCDDAExtractor 8.1.4.1
#
DISCID=69062009
DTITLE=LOS BUKIS - CASAS DE CARTON
DYEAR=1987
DGENRE=Big Band
TTITLE0=CASAS DE CARTON
TTITLE1=TE NECESITO TANTO AMOR
TTITLE2=MI CHAPARRITA
TTITLE3=CUMBIAS MICHOACANAS
TTITLE4=LOS ALAMBRADOS
TTITLE5=MI LINDA ESPOSA
TTITLE6=SI TE PASO LO QUE ME PASO
TTITLE7=LAS HOLGAZANAS
TTITLE8=LOS CHICANOS
EXTD=
EXTT0=
EXTT1=
EXTT2=
EXTT3=
EXTT4=
EXTT5=
EXTT6=
EXTT7=
EXTT8=
PLAYORDER=
